<?xml version="1.0" standalone="no"?>
<!DOCTYPE svg PUBLIC "-//W3C//DTD SVG 1.1//EN" "http://www.w3.org/Graphics/SVG/1.1/DTD/svg11.dtd" >
<svg xmlns="http://www.w3.org/2000/svg">
<metadata>
This is a custom SVG webfont generated by Font Squirrel.
Copyright   : Copyright c 2011 wmk69 wmk69o2plwith Reserved Font Names NovaSquare and Nova SquareThis Font Software is licensed under the SIL Open Font License Version 11This license is available with a FAQ athttpscriptssilorgOFL
</metadata>
<defs>
<font id="NovaSquareBook" horiz-adv-x="1410" >
<font-face units-per-em="2048" ascent="1638" descent="-410" />
<missing-glyph horiz-adv-x="800" />
<glyph unicode=" "  horiz-adv-x="800" />
<glyph unicode="&#x09;" horiz-adv-x="800" />
<glyph unicode="&#xa0;" horiz-adv-x="800" />
<glyph unicode="!" horiz-adv-x="600" d="M180 102.5q0 50.5 35 86.5t85 36t85 -36t35 -86.5t-35 -86.5t-85 -36t-85 36t-35 86.5zM200 420v1040l190 90h10v-1040l-190 -90h-10z" />
<glyph unicode="&#x22;" horiz-adv-x="747" d="M150 992v484l156 74h10v-484l-156 -74h-10zM431 992v484l156 74h10v-484l-156 -74h-10z" />
<glyph unicode="#" horiz-adv-x="1368" d="M150 520v10l81 172h217v108h-298v10l81 172h217v217l172 81h10v-298h108v217l172 81h10v-298h298v-10l-81 -172h-217v-108h298v-10l-81 -172h-217v-217l-172 -81h-10v298h-108v-217l-172 -81h-10v298h-298zM630 702h108v108h-108v-108z" />
<glyph unicode="$" horiz-adv-x="1330" d="M160 350v110l190 90h10v-200q0 -170 150 -170h97v550h-57q-300 0 -300 300v180q0 300 300 300h57v190l106 50h10v-240h57q300 0 300 -300v-53l-190 -90h-10v143q0 120 -100 120h-57v-420h97q350 0 350 -350v-210q0 -350 -350 -350h-97v-190l-106 -50h-10v240h-97 q-350 0 -350 350zM450 1030q0 -120 100 -120h57v420h-57q-100 0 -100 -120v-180zM723 180h97q150 0 150 170v210q0 170 -150 170h-97v-550z" />
<glyph unicode="%" horiz-adv-x="2144" d="M150 1050v160q0 300 300 300h230q300 0 300 -300v-160q0 -300 -300 -300h-230q-300 0 -300 300zM350 1050q0 -120 100 -120h230q100 0 100 120v160q0 120 -100 120h-230q-100 0 -100 -120v-160zM647 28l709 1522h10l141 -68l-709 -1522h-10zM1164 300v160q0 300 300 300 h230q300 0 300 -300v-160q0 -300 -300 -300h-230q-300 0 -300 300zM1364 300q0 -120 100 -120h230q100 0 100 120v160q0 120 -100 120h-230q-100 0 -100 -120v-160z" />
<glyph unicode="&#x26;" horiz-adv-x="1720" d="M160 350v226q0 211 148 295q-58 65 -58 175v164q0 300 300 300h230q300 0 300 -300v-73l-190 -90h-10v163q0 120 -100 120h-230q-100 0 -100 -120v-164q0 -120 100 -120h268l306 -366l252 336h10l172 -82l-318 -396l320 -376l-174 -82h-10l-270 324l-248 -284h-348 q-350 0 -350 350zM360 350q0 -170 150 -170h268l228 236l-280 330h-216q-150 0 -150 -170v-226z" />
<glyph unicode="'" horiz-adv-x="466" d="M150 992v484l156 74h10v-484l-156 -74h-10z" />
<glyph unicode="(" horiz-adv-x="755" d="M200 90v1330q0 183 227 277q127 53 278 53v-180q-100 0 -184 -33q-121 -48 -121 -117v-1330q0 -69 121 -117q84 -33 184 -33v-180q-151 0 -278 53q-227 94 -227 277z" />
<glyph unicode=")" horiz-adv-x="755" d="M50 -60q100 0 184 33q121 48 121 117v1330q0 69 -121 117q-84 33 -184 33v180q151 0 278 -53q227 -94 227 -277v-1330q0 -183 -227 -277q-127 -53 -278 -53v180z" />
<glyph unicode="*" horiz-adv-x="1183" d="M150 943l279 150l-279 150l5 8l156 109l189 -129v238l172 81h10v-319l189 129l157 -109l5 -8l-280 -150l280 -150l-5 -8l-157 -109l-189 129v-238l-172 -81h-10v319l-189 -129l-156 109z" />
<glyph unicode="+" horiz-adv-x="1214" d="M150 664v10l81 172h285v285l172 81h10v-366h366v-10l-81 -172h-285v-285l-172 -81h-10v366h-366z" />
<glyph unicode="," horiz-adv-x="609" d="M150 188l190 90h10q109 -107 109 -244q0 -191 -245 -320l-43 50q113 115 113 216q0 121 -134 208z" />
<glyph unicode="-" horiz-adv-x="1214" d="M150 664v10l81 172h833v-10l-81 -172h-833z" />
<glyph unicode="." horiz-adv-x="600" d="M180 102.5q0 50.5 35 86.5t85 36t85 -36t35 -86.5t-35 -86.5t-85 -36t-85 36t-35 86.5z" />
<glyph unicode="/" horiz-adv-x="974" d="M10 -72l802 1722h10l142 -68l-803 -1722h-10z" />
<glyph unicode="0" d="M200 350v810q0 350 350 350h310q350 0 350 -350v-810q0 -350 -350 -350h-310q-350 0 -350 350zM400 350q0 -170 150 -170h310q150 0 150 170v810q0 170 -150 170h-310q-150 0 -150 -170v-810z" />
<glyph unicode="1" horiz-adv-x="714" d="M20 1138v205l434 207h10v-1500l-190 -90h-10v1312z" />
<glyph unicode="2" horiz-adv-x="1333" d="M150 0v10l81 172l479 464q240 236 240 351v163q0 170 -150 170h-290q-150 0 -150 -170v-110l-190 -90h-10v200q0 350 350 350h290q350 0 350 -350v-173q0 -190 -257 -417l-421 -388h701v-10l-81 -172h-942z" />
<glyph unicode="3" horiz-adv-x="1330" d="M160 350v110l190 90h10v-200q0 -170 150 -170h310q150 0 150 170v232q0 170 -150 170h-354l307 576h-524v10l81 172h753l-332 -578h69q350 0 350 -350v-232q0 -350 -350 -350h-310q-350 0 -350 350z" />
<glyph unicode="4" horiz-adv-x="1188" d="M5 358v10l81 172l652 920l190 90h10v-1010h150v-10l-81 -172h-69v-308l-190 -90h-10v398h-733zM303 540h435v646z" />
<glyph unicode="5" horiz-adv-x="1330" d="M160 350v110l190 90h10v-200q0 -170 150 -170h310q150 0 150 170v232q0 170 -150 170h-378l-209 101l167 657h693v-10l-81 -172h-460l-102 -396h370q350 0 350 -350v-232q0 -350 -350 -350h-310q-350 0 -350 350z" />
<glyph unicode="6" d="M200 350v810q0 350 350 350h290q350 0 350 -350v-30l-190 -90h-10v120q0 170 -150 170h-290q-150 0 -150 -170v-244q70 42 150 42h310q350 0 350 -350v-258q0 -350 -350 -350h-310q-350 0 -350 350zM400 350q0 -170 150 -170h310q150 0 150 170v258q0 170 -150 170h-310 q-150 0 -150 -170v-258z" />
<glyph unicode="7" horiz-adv-x="1047" d="M50 1328v10l81 172h866v-10l-539 -1540h-10l-180 85l458 1283h-676z" />
<glyph unicode="8" horiz-adv-x="1330" d="M160 350v226q0 211 148 295q-58 65 -58 175v164q0 300 300 300h230q300 0 300 -300v-164q0 -110 -58 -175q148 -84 148 -295v-226q0 -350 -350 -350h-310q-350 0 -350 350zM360 350q0 -170 150 -170h310q150 0 150 170v226q0 170 -150 170h-310q-150 0 -150 -170v-226z M450 1046q0 -120 100 -120h230q100 0 100 120v164q0 120 -100 120h-230q-100 0 -100 -120v-164z" />
<glyph unicode="9" d="M200 902v258q0 350 350 350h310q350 0 350 -350v-810q0 -350 -350 -350h-290q-350 0 -350 350v30l190 90h10v-120q0 -170 150 -170h290q150 0 150 170v244q-70 -42 -150 -42h-310q-350 0 -350 350zM400 902q0 -170 150 -170h310q150 0 150 170v258q0 170 -150 170h-310 q-150 0 -150 -170v-258z" />
<glyph unicode=":" horiz-adv-x="600" d="M180 102.5q0 50.5 35 86.5t85 36t85 -36t35 -86.5t-35 -86.5t-85 -36t-85 36t-35 86.5zM180 753.5q0 50.5 35 86.5t85 36t85 -36t35 -86.5t-35 -86.5t-85 -36t-85 36t-35 86.5z" />
<glyph unicode=";" horiz-adv-x="600" d="M141 188l190 90h10q109 -107 109 -244q0 -191 -245 -320l-43 50q113 115 113 216q0 121 -134 208zM180 753.5q0 50.5 35 86.5t85 36t85 -36t35 -86.5t-35 -86.5t-85 -36t-85 36t-35 86.5z" />
<glyph unicode="&#x3c;" horiz-adv-x="1338" d="M150 664v10l82 173l824 351l82 -173v-10l-684 -277l684 -277v-10l-82 -173z" />
<glyph unicode="=" horiz-adv-x="1214" d="M150 482v10l81 172h833v-10l-81 -172h-833zM150 846v10l81 172h833v-10l-81 -172h-833z" />
<glyph unicode="&#x3e;" horiz-adv-x="1338" d="M200 451v10l684 277l-684 277v10l82 173l906 -386v-10l-82 -173l-824 -351z" />
<glyph unicode="?" horiz-adv-x="1310" d="M150 960v200q0 350 350 350h310q350 0 350 -350v-110q0 -247 -339 -459q-87 -54 -90 -137l-193 -93h-10q1 254 175 361q257 158 257 329v109q0 170 -150 170h-310q-150 0 -150 -170v-110l-190 -90h-10zM525 102.5q0 50.5 35 86.5t85 36t85 -36t35 -86.5t-35 -86.5 t-85 -36t-85 36t-35 86.5z" />
<glyph unicode="@" horiz-adv-x="1370" d="M180 -60v810q0 350 350 350h360q300 0 300 -300v-750l-190 -90h-10v50q-45 -10 -100 -10h-101q-300 0 -300 300v74q0 300 300 300h101q55 0 100 -10v136q0 120 -100 120h-360q-150 0 -150 -170v-810q0 -170 150 -170h270v-180h-270q-350 0 -350 350zM689 300 q0 -120 100 -120h101q100 0 100 120v74q0 120 -100 120h-101q-100 0 -100 -120v-74z" />
<glyph unicode="A" d="M200 -40v1200q0 350 350 350h310q350 0 350 -350v-1110l-190 -90h-10v704h-610v-614l-190 -90h-10zM400 846h610v314q0 170 -150 170h-310q-150 0 -150 -170v-314z" />
<glyph unicode="B" horiz-adv-x="1370" d="M200 0v1460l106 50h494q300 0 300 -300v-164q0 -110 -58 -175q148 -84 148 -295v-226q0 -350 -350 -350h-640zM400 180h440q150 0 150 170v226q0 170 -150 170h-440v-566zM400 926h400q100 0 100 120v164q0 120 -100 120h-400v-404z" />
<glyph unicode="C" d="M200 350v810q0 350 350 350h310q350 0 350 -350v-110l-190 -90h-10v200q0 170 -150 170h-310q-150 0 -150 -170v-810q0 -170 150 -170h310q150 0 150 170v110l190 90h10v-200q0 -350 -350 -350h-310q-350 0 -350 350z" />
<glyph unicode="D" horiz-adv-x="1390" d="M200 0v1460l106 50h534q350 0 350 -350v-810q0 -350 -350 -350h-640zM400 180h440q150 0 150 170v810q0 170 -150 170h-440v-1150z" />
<glyph unicode="E" horiz-adv-x="1157" d="M200 0v1460l106 50h634v-10l-81 -172h-459v-482h540v-10l-81 -172h-459v-482h707v-10l-81 -172h-826z" />
<glyph unicode="F" horiz-adv-x="1120" d="M200 -40v1500l106 50h634v-10l-81 -172h-459v-482h540v-10l-81 -172h-459v-614l-190 -90h-10z" />
<glyph unicode="G" d="M200 350v810q0 350 350 350h310q350 0 350 -350v-110l-190 -90h-10v200q0 170 -150 170h-310q-150 0 -150 -170v-810q0 -170 150 -170h310q150 0 150 170v314h-348v10l81 172h467v-496q0 -350 -350 -350h-310q-350 0 -350 350z" />
<glyph unicode="H" horiz-adv-x="1390" d="M200 -40v1500l190 90h10v-704h590v614l190 90h10v-1500l-190 -90h-10v704h-590v-614l-190 -90h-10z" />
<glyph unicode="I" horiz-adv-x="600" d="M200 -40v1500l190 90h10v-1500l-190 -90h-10z" />
<glyph unicode="J" horiz-adv-x="1270" d="M80 350v110l190 90h10v-200q0 -170 150 -170h290q150 0 150 170v978h-573v10l81 172h692v-1160q0 -350 -350 -350h-290q-350 0 -350 350z" />
<glyph unicode="K" horiz-adv-x="1360" d="M200 -40v563v937l190 90h10v-698q23 8 49 12l494 686h10l176 -83l-446 -594h147q350 0 350 -350v-473l-190 -90h-10v563q0 170 -150 170h-280q-150 0 -150 -170v-473l-190 -90h-10z" />
<glyph unicode="L" horiz-adv-x="1090" d="M200 0v1460l190 90h10v-1368h685v-10l-81 -172h-804z" />
<glyph unicode="M" horiz-adv-x="2220" d="M200 -40v1200q0 350 350 350h310q180 0 250 -96q80 96 250 96h310q350 0 350 -350v-1110l-190 -90h-10v1200q0 170 -150 170h-310q-150 0 -150 -170v-1110l-190 -90h-10v1200q0 170 -150 170h-310q-150 0 -150 -170v-1110l-190 -90h-10z" />
<glyph unicode="N" d="M200 -40v1200q0 350 350 350h310q350 0 350 -350v-1110l-190 -90h-10v1200q0 170 -150 170h-310q-150 0 -150 -170v-1110l-190 -90h-10z" />
<glyph unicode="O" d="M200 350v810q0 350 350 350h310q350 0 350 -350v-810q0 -350 -350 -350h-310q-350 0 -350 350zM400 350q0 -170 150 -170h310q150 0 150 170v810q0 170 -150 170h-310q-150 0 -150 -170v-810z" />
<glyph unicode="P" horiz-adv-x="1340" d="M200 -40v1500l106 50h534q350 0 350 -350v-300q0 -350 -350 -350h-440v-460l-190 -90h-10zM400 690h440q150 0 150 170v300q0 170 -150 170h-440v-640z" />
<glyph unicode="Q" d="M200 350v810q0 350 350 350h310q350 0 350 -350v-810q0 -169 -82 -257l35 -50l-176 -83h-10l-32 46q-40 -6 -85 -6h-310q-350 0 -350 350zM400 350q0 -170 150 -170h273l-192 275l176 83h10l184 -263q9 32 9 75v810q0 170 -150 170h-310q-150 0 -150 -170v-810z" />
<glyph unicode="R" horiz-adv-x="1364" d="M200 -40v1500l106 50h534q350 0 350 -350v-300q0 -326 -303 -348l327 -469l-176 -83h-10l-385 550h-243v-460l-190 -90h-10zM400 690h440q150 0 150 170v300q0 170 -150 170h-440v-640z" />
<glyph unicode="S" horiz-adv-x="1330" d="M160 350v110l190 90h10v-200q0 -170 150 -170h310q150 0 150 170v210q0 170 -150 170h-270q-300 0 -300 300v180q0 300 300 300h230q300 0 300 -300v-53l-190 -90h-10v143q0 120 -100 120h-230q-100 0 -100 -120v-180q0 -120 100 -120h270q350 0 350 -350v-210 q0 -350 -350 -350h-310q-350 0 -350 350z" />
<glyph unicode="T" horiz-adv-x="1066" d="M5 1328v10l81 172h975v-10l-81 -172h-347v-1278l-190 -90h-10v1368h-428z" />
<glyph unicode="U" d="M200 350v1110l190 90h10v-1200q0 -170 150 -170h310q150 0 150 170v1110l190 90h10v-1200q0 -350 -350 -350h-310q-350 0 -350 350z" />
<glyph unicode="V" horiz-adv-x="1181" d="M5 1468l173 82h10l414 -1256l391 1256h10l173 -82l-478 -1426l-173 -82h-10z" />
<glyph unicode="W" horiz-adv-x="2220" d="M200 350v1110l190 90h10v-1200q0 -170 150 -170h310q150 0 150 170v1110l190 90h10v-1200q0 -170 150 -170h310q150 0 150 170v1110l190 90h10v-1200q0 -350 -350 -350h-310q-180 0 -250 96q-80 -96 -250 -96h-310q-350 0 -350 350z" />
<glyph unicode="X" horiz-adv-x="1278" d="M100 42l422 713l-422 712l175 83h10l354 -618l354 618h10l175 -83l-422 -712l422 -713l-174 -82h-10l-355 618l-355 -618h-10z" />
<glyph unicode="Y" horiz-adv-x="1310" d="M150 832v628l190 90h10v-718q0 -170 150 -170h310q150 0 150 170v628l190 90h10v-718q0 -350 -350 -350h-55v-432l-190 -90h-10v522h-55q-350 0 -350 350z" />
<glyph unicode="Z" horiz-adv-x="1267" d="M150 0v10l647 1318h-637v10l81 172h866v-10l-650 -1318h660v-10l-81 -172h-886z" />
<glyph unicode="[" horiz-adv-x="864" d="M200 -240v1900l190 90h424v-10l-61 -130h-353v-1710h414v-10l-61 -130h-553z" />
<glyph unicode="\" horiz-adv-x="974" d="M10 1582l141 68h10l803 -1722l-142 -68h-10z" />
<glyph unicode="]" horiz-adv-x="864" d="M50 -230l61 130h353v1710h-414v10l61 130h553v-1900l-190 -90h-424v10z" />
<glyph unicode="^" horiz-adv-x="1321" d="M150 1088l378 380l173 82h10l460 -462l-173 -82h-10l-329 322l-326 -322h-10z" />
<glyph unicode="_" horiz-adv-x="1214" d="M150 -400l81 172h833v-10l-81 -172h-833v10z" />
<glyph unicode="`" horiz-adv-x="648" d="M150 1466l176 84h10l162 -345l-117 -55h-10z" />
<glyph unicode="a" horiz-adv-x="1060" d="M100 300v137q0 300 300 300h210q52 0 100 -30v93q0 120 -100 120h-358v10l80 170h278q300 0 300 -300v-750l-190 -90h-10v70q-38 -30 -100 -30h-210q-300 0 -300 300zM300 300q0 -120 100 -120h210q100 0 100 120v137q0 120 -100 120h-210q-100 0 -100 -120v-137z" />
<glyph unicode="b" horiz-adv-x="1180" d="M200 300v1160l190 90h10v-481q40 31 100 31h230q300 0 300 -300v-500q0 -300 -300 -300h-230q-300 0 -300 300zM400 300q0 -120 100 -120h230q100 0 100 120v500q0 120 -100 120h-230q-100 0 -100 -120v-500z" />
<glyph unicode="c" horiz-adv-x="1130" d="M150 300v500q0 300 300 300h230q300 0 300 -300v-53l-190 -90h-10v143q0 120 -100 120h-230q-100 0 -100 -120v-500q0 -120 100 -120h230q100 0 100 120v53l190 90h10v-143q0 -300 -300 -300h-230q-300 0 -300 300z" />
<glyph unicode="d" horiz-adv-x="1180" d="M150 300v500q0 300 300 300h230q68 0 100 -31v391l190 90h10v-1250q0 -300 -300 -300h-230q-300 0 -300 300zM350 300q0 -120 100 -120h230q100 0 100 120v500q0 120 -100 120h-230q-100 0 -100 -120v-500z" />
<glyph unicode="e" horiz-adv-x="1130" d="M150 300v500q0 300 300 300h230q300 0 300 -300v-53l-627 -485q14 -82 97 -82h230q100 0 100 120v53l190 90h10v-143q0 -300 -300 -300h-230q-300 0 -300 300zM350 471l429 346q-6 103 -99 103h-230q-100 0 -100 -120v-329z" />
<glyph unicode="f" horiz-adv-x="850" d="M50 818v10l81 172h69v210q0 300 300 300h250v-10l-80 -170h-170q-100 0 -100 -120v-210h331v-10l-81 -172h-250v-768l-190 -90h-10v858h-150z" />
<glyph unicode="g" horiz-adv-x="1160" d="M150 300v500q0 300 300 300h230q300 0 300 -300v-910q0 -300 -300 -300h-426v10l80 170h346q100 0 100 120v140q-42 -30 -100 -30h-230q-300 0 -300 300zM350 300q0 -120 100 -120h230q100 0 100 120v500q0 120 -100 120h-230q-100 0 -100 -120v-500z" />
<glyph unicode="h" horiz-adv-x="1180" d="M200 -40v1500l190 90h10v-481q44 31 100 31h230q300 0 300 -300v-750l-190 -90h-10v840q0 120 -100 120h-230q-100 0 -100 -120v-750l-190 -90h-10z" />
<glyph unicode="i" horiz-adv-x="600" d="M180 1407.5q0 50.5 35 86.5t85 36t85 -36t35 -86.5t-35 -86.5t-85 -36t-85 36t-35 86.5zM200 -40v1090l190 90h10v-1090l-190 -90h-10z" />
<glyph unicode="j" horiz-adv-x="600" d="M0 -400l80 170h20q100 0 100 120v1160l190 90h10v-1250q0 -300 -300 -300h-100v10zM180 1407.5q0 50.5 35 86.5t85 36t85 -36t35 -86.5t-35 -86.5t-85 -36t-85 36t-35 86.5z" />
<glyph unicode="k" horiz-adv-x="1180" d="M200 -40v1500l190 90h10v-810q13 3 28 5l390 395h10l176 -83l-334 -307h60q300 0 300 -300v-400l-190 -90h-10v490q0 120 -100 120h-230q-100 0 -100 -120v-400l-190 -90h-10z" />
<glyph unicode="l" horiz-adv-x="600" d="M200 -40v1500l190 90h10v-1500l-190 -90h-10z" />
<glyph unicode="m" horiz-adv-x="1760" d="M150 -40v840q0 300 300 300h230q138 0 200 -74q66 74 200 74h230q300 0 300 -300v-750l-190 -90h-10v840q0 120 -100 120h-230q-100 0 -100 -120v-750l-190 -90h-10v840q0 120 -100 120h-230q-100 0 -100 -120v-750l-190 -90h-10z" />
<glyph unicode="n" horiz-adv-x="1130" d="M150 -40v840q0 300 300 300h230q300 0 300 -300v-750l-190 -90h-10v840q0 120 -100 120h-230q-100 0 -100 -120v-750l-190 -90h-10z" />
<glyph unicode="o" horiz-adv-x="1130" d="M150 300v500q0 300 300 300h230q300 0 300 -300v-500q0 -300 -300 -300h-230q-300 0 -300 300zM350 300q0 -120 100 -120h230q100 0 100 120v500q0 120 -100 120h-230q-100 0 -100 -120v-500z" />
<glyph unicode="p" horiz-adv-x="1180" d="M200 -450v1250q0 300 300 300h230q300 0 300 -300v-500q0 -300 -300 -300h-230q-68 0 -100 31v-391l-190 -90h-10zM400 300q0 -120 100 -120h230q100 0 100 120v500q0 120 -100 120h-230q-100 0 -100 -120v-500z" />
<glyph unicode="q" horiz-adv-x="1180" d="M150 300v500q0 300 300 300h230q300 0 300 -300v-1160l-190 -90h-10v481q-40 -31 -100 -31h-230q-300 0 -300 300zM350 300q0 -120 100 -120h230q100 0 100 120v500q0 120 -100 120h-230q-100 0 -100 -120v-500z" />
<glyph unicode="r" horiz-adv-x="720" d="M150 -40v840q0 300 300 300h250v-10l-80 -170h-170q-100 0 -100 -120v-750l-190 -90h-10z" />
<glyph unicode="s" horiz-adv-x="1070" d="M120 300v36l190 90h10v-126q0 -120 100 -120h230q100 0 100 120v79q0 120 -100 120h-188q-300 0 -300 301q0 300 300 300h117q300 0 300 -242l-190 -90h-10v32q0 120 -100 120h-117q-100 0 -100 -120q0 -121 100 -121h188q300 0 300 -300v-79q0 -300 -300 -300h-230 q-300 0 -300 300z" />
<glyph unicode="t" horiz-adv-x="764" d="M25 918v10l81 172h176v360l190 90h10v-450h257v-10l-81 -172h-176v-868l-190 -90h-10v958h-257z" />
<glyph unicode="u" horiz-adv-x="1130" d="M150 300v750l190 90h10v-840q0 -120 100 -120h230q100 0 100 120v750l190 90h10v-840q0 -300 -300 -300h-230q-300 0 -300 300z" />
<glyph unicode="v" horiz-adv-x="1026" d="M50 1058l173 82h10l283 -834l277 834h10l173 -82l-357 -1016l-173 -82h-10z" />
<glyph unicode="w" horiz-adv-x="1760" d="M150 300v750l190 90h10v-840q0 -120 100 -120h230q100 0 100 120v750l190 90h10v-840q0 -120 100 -120h230q100 0 100 120v750l190 90h10v-840q0 -300 -300 -300h-230q-138 0 -200 74q-66 -74 -200 -74h-230q-300 0 -300 300z" />
<glyph unicode="x" horiz-adv-x="1015" d="M80 42l310 508l-310 507l175 83h10l243 -427l242 427h10l175 -83l-310 -507l310 -508l-174 -82h-10l-243 428l-244 -428h-10z" />
<glyph unicode="y" horiz-adv-x="1180" d="M150 300v750l190 90h10v-840q0 -120 100 -120h230q100 0 100 120v750l190 90h10v-1250q0 -300 -300 -300h-426v10l80 170h346q100 0 100 120v140q-39 -30 -100 -30h-230q-300 0 -300 300z" />
<glyph unicode="z" horiz-adv-x="1053" d="M100 0v10l523 908h-513v10l81 172h752v-10l-522 -908h532v-10l-81 -172h-772z" />
<glyph unicode="{" horiz-adv-x="825" d="M50 664v10l81 172h139v574q0 183 227 277q127 53 278 53v-180q-100 0 -184 -33q-121 -48 -121 -117v-1330q0 -69 121 -117q84 -33 184 -33v-180q-151 0 -278 53q-227 94 -227 277v574h-220z" />
<glyph unicode="|" horiz-adv-x="666" d="M250 -240v1916l156 74h10v-1916l-156 -74h-10z" />
<glyph unicode="}" horiz-adv-x="825" d="M50 -60q100 0 184 33q121 48 121 117v1330q0 69 -121 117q-84 33 -184 33v180q151 0 278 -53q227 -94 227 -277v-574h220v-10l-81 -172h-139v-574q0 -183 -227 -277q-127 -53 -278 -53v180z" />
<glyph unicode="~" horiz-adv-x="1138" d="M150 583q0 361 237 361q134 0 223 -101q73 -83 128 -83q72 0 72 103l168 81h10q0 -361 -237 -361q-134 0 -223 101q-73 83 -128 83q-72 0 -72 -103l-168 -81h-10z" />
<glyph unicode="&#xa1;" horiz-adv-x="600" d="M180 1407.5q0 50.5 35 86.5t85 36t85 -36t35 -86.5t-35 -86.5t-85 -36t-85 36t-35 86.5zM200 -40v1040l190 90h10v-1040l-190 -90h-10z" />
<glyph unicode="&#xa2;" horiz-adv-x="1130" d="M150 300v500q0 300 300 300h57v190l106 50h10v-240h57q300 0 300 -300v-53l-190 -90h-10v143q0 120 -100 120h-57v-740h57q100 0 100 120v53l190 90h10v-143q0 -300 -300 -300h-57v-190l-106 -50h-10v240h-57q-300 0 -300 300zM350 300q0 -120 100 -120h57v740h-57 q-100 0 -100 -120v-500z" />
<glyph unicode="&#xa3;" horiz-adv-x="1335" d="M150 0v10l81 172h69v416h-150v10l81 172h69v430q0 300 300 300h230q300 0 300 -300v-73l-190 -90h-10v163q0 120 -100 120h-230q-100 0 -100 -120v-430h415v-10l-81 -172h-334v-416h685v-10l-81 -172h-954z" />
<glyph unicode="&#xa4;" horiz-adv-x="1440" d="M150 329l106 106q-33 74 -33 181v262q0 126 45 206l-101 101l7 7l178 64l55 -54q70 26 166 26h310q95 0 164 -26l56 55l179 -64l7 -7l-101 -101q45 -81 45 -207v-262q0 -126 -45 -206l102 -102l-7 -7l-179 -64l-56 55q-69 -26 -165 -26h-310q-115 0 -192 38l-45 -46 l-179 64zM423 616q0 -170 150 -170h310q150 0 150 170v262q0 170 -150 170h-310q-150 0 -150 -170v-262z" />
<glyph unicode="&#xa5;" horiz-adv-x="1278" d="M100 1467l175 83h10l268 -608h228l282 608h10l105 -50l-267 -558h184v-10l-81 -172h-190l-71 -148h342v-10l-81 -172h-298v-380l-190 -90h-10v470h-335v10l81 172h222l-67 148h-236v10l81 172h74zM633 760l31 -70l32 70h-63z" />
<glyph unicode="&#xa6;" horiz-adv-x="666" d="M250 -240v827l156 74h10v-827l-156 -74h-10zM250 849v827l156 74h10v-827l-156 -74h-10z" />
<glyph unicode="&#xa7;" horiz-adv-x="1130" d="M150 721v205l200 -65v-140q0 -120 100 -120h188q300 0 300 -301q0 -300 -300 -300h-117q-300 0 -300 242l190 90h10v-32q0 -120 100 -120h117q100 0 100 120q0 121 -100 121h-188q-300 0 -300 300zM192 1210q0 300 300 300h117q300 0 300 -242l-190 -90h-10v32 q0 120 -100 120h-117q-100 0 -100 -120q0 -121 100 -121h188q300 0 300 -300v-205l-200 65v140q0 120 -100 120h-188q-300 0 -300 301z" />
<glyph unicode="&#xa8;" horiz-adv-x="840" d="M150 1407.5q0 50.5 35 86.5t85 36t85 -36t35 -86.5t-35 -86.5t-85 -36t-85 36t-35 86.5zM450 1407.5q0 50.5 35 86.5t85 36t85 -36t35 -86.5t-35 -86.5t-85 -36t-85 36t-35 86.5z" />
<glyph unicode="&#xa9;" horiz-adv-x="1401" d="M150 754q0 119 40 221t121 186q81 85 179 127.5t211 42.5q110 0 210 -43q96 -41 179 -127q80 -83 121 -186q40 -101 40 -221q0 -116 -40 -219q-38 -98 -121 -185q-79 -83 -179 -127q-98 -43 -210 -43q-111 0 -211 43q-96 41 -179 127q-81 84 -121 185t-40 219zM224 754 q0 -99 36 -188q34 -83 106 -160q70 -74 153 -110q85 -37 182 -37t182 37q83 36 154 110q69 72 104 159t35 189q0 103 -35 191q-34 86 -104 160q-69 73 -154 110q-85 36 -182 36q-98 0 -181 -36t-154 -110q-70 -73 -106 -161t-36 -185v-5zM428 546v391q0 195 200 195h154 q200 0 200 -200v-70l-114 -54h-36v124q0 60 -50 60h-154q-50 0 -50 -57v-385q0 -58 50 -58h154q50 0 50 60v71l115 55h35v-126q0 -200 -200 -200h-154q-200 0 -200 194z" />
<glyph unicode="&#xaa;" horiz-adv-x="955" d="M150 664v10l81 172h574v-10l-81 -172h-574zM253 1090v68q0 170 170 170h105q28 1 30 -1v13q0 40 -30 40h-199v29l47 101h152q170 0 170 -170v-388l-111 -52h-29v22q-15 -2 -30 -2h-105q-170 0 -170 170zM393 1090q0 -40 30 -40h105q30 0 30 40v68q0 41 -30 40h-105 q-31 1 -30 -40v-68z" />
<glyph unicode="&#xab;" horiz-adv-x="1208" d="M150 792l289 492h10l174 -82l-242 -407l242 -409l-174 -82h-10zM535 792l289 492h10l174 -82l-242 -407l242 -409l-174 -82h-10z" />
<glyph unicode="&#xac;" horiz-adv-x="1214" d="M150 664v10l81 172h833v-10l-207 -434h-215l142 262h-634z" />
<glyph unicode="&#xad;" horiz-adv-x="1214" d="M150 664v10l81 172h833v-10l-81 -172h-833z" />
<glyph unicode="&#xae;" horiz-adv-x="1401" d="M150 754q0 120 40 221t121 186q82 85 179 127.5t211 42.5q110 0 210 -43q96 -41 179 -127q80 -83 121 -186q40 -101 40 -221q0 -116 -40 -219q-38 -98 -121 -185q-79 -83 -179 -127q-98 -43 -210 -43q-111 0 -211 43q-96 41 -179 127q-81 84 -121 185t-40 219zM224 754 q0 -99 36 -188q34 -83 106 -160q70 -74 153 -110q85 -37 182 -37t182 37q83 36 154 110q69 72 104 159t35 189q0 103 -35 191q-34 86 -104 160q-69 73 -154 110q-85 36 -182 36q-98 0 -181 -36t-154 -110q-70 -73 -106 -161t-36 -185v-5zM443 355v766l72 34h273 q200 -1 200 -191v-143q0 -153 -133 -184l157 -225l-120 -57h-23l-193 275h-83v-221l-115 -54h-35zM593 770h195q50 0 50 54v137q0 54 -50 54h-195v-245z" />
<glyph unicode="&#xaf;" horiz-adv-x="1214" d="M150 1328v10l81 172h833v-10l-81 -172h-833z" />
<glyph unicode="&#xb0;" horiz-adv-x="1130" d="M150 1050v160q0 300 300 300h230q300 0 300 -300v-160q0 -300 -300 -300h-230q-300 0 -300 300zM350 1050q0 -120 100 -120h230q100 0 100 120v160q0 120 -100 120h-230q-100 0 -100 -120v-160z" />
<glyph unicode="&#xb1;" horiz-adv-x="1214" d="M150 243v10l81 172h833v-10l-81 -172h-833zM150 835v10l81 172h285v285l172 81h10v-366h366v-10l-81 -172h-285v-285l-172 -81h-10v366h-366z" />
<glyph unicode="&#xb2;" horiz-adv-x="862" d="M150 730v36l45 95l243 224q112 105 112 150v78q0 57 -50 57h-145q-50 0 -50 -60v-71l-114 -54h-36v125q0 200 200 200h145q200 0 200 -194v-83q0 -102 -137 -218l-163 -144h312v-36l-50 -105h-512z" />
<glyph unicode="&#xb3;" horiz-adv-x="855" d="M150 930v71l114 54h36v-125q0 -60 50 -60h155q50 0 50 57v111q0 57 -50 57h-219l154 274h-246v36l50 105h436l-166 -280q90 -2 139 -48q52 -49 52 -146v-112q0 -194 -200 -194h-155q-200 0 -200 200z" />
<glyph unicode="&#xb4;" horiz-adv-x="648" d="M150 1205l162 345h10l176 -84l-221 -316h-10z" />
<glyph unicode="&#xb5;" horiz-adv-x="1180" d="M200 -450v1500l190 90h10v-840q0 -120 100 -120h230q100 0 100 120v750l190 90h10v-840q0 -300 -300 -300h-230q-59 0 -100 30v-390l-190 -90h-10z" />
<glyph unicode="&#xb6;" horiz-adv-x="1180" d="M150 874v336q0 300 300 300h230q300 0 300 -300v-1160l-66 -31v1118h-64v-1149l-60 -28h-10v644q-41 -30 -100 -30h-230q-300 0 -300 300z" />
<glyph unicode="&#xb7;" horiz-adv-x="600" d="M180 753.5q0 50.5 35 86.5t85 36t85 -36t35 -86.5t-35 -86.5t-85 -36t-85 36t-35 86.5z" />
<glyph unicode="&#xb8;" horiz-adv-x="609" d="M150 -196q134 87 134 208q0 101 -113 216l43 50q245 -129 245 -320q0 -137 -109 -244h-10z" />
<glyph unicode="&#xb9;" horiz-adv-x="672" d="M150 1325v112l236 113h36v-786l-114 -54h-36v672z" />
<glyph unicode="&#xba;" horiz-adv-x="955" d="M150 664v10l81 172h574v-10l-81 -172h-574zM251 1090v250q1 170 170 170h115q170 0 170 -170v-250q0 -170 -170 -170h-115q-169 0 -170 170zM391 1090q1 -40 30 -40h115q30 0 30 40v250q0 40 -30 40h-115q-29 0 -30 -40v-250z" />
<glyph unicode="&#xbb;" horiz-adv-x="1208" d="M200 386l242 409l-242 407l174 82h10l289 -492l-289 -488h-10zM585 386l242 409l-242 407l174 82h10l289 -492l-289 -488h-10z" />
<glyph unicode="&#xbc;" horiz-adv-x="1469" d="M150 1325v112l236 113h36v-786l-114 -54h-36v672zM211 28l709 1522h10l141 -68l-709 -1522h-10zM678 195v36l44 93l331 426l105 50h36v-464h75v-36l-50 -105h-25v-181l-114 -54h-36v235h-366zM879 336h165v204z" />
<glyph unicode="&#xbd;" horiz-adv-x="1536" d="M150 1325v112l236 113h36v-786l-114 -54h-36v672zM211 28l709 1522h10l141 -68l-709 -1522h-10zM774 0v36l45 95l243 224q112 105 112 150v78q0 57 -50 57h-145q-50 0 -50 -60v-71l-114 -54h-36v125q0 200 200 200h145q200 0 200 -194v-83q0 -102 -137 -218l-163 -144 h312v-36l-50 -105h-512z" />
<glyph unicode="&#xbe;" horiz-adv-x="1665" d="M150 930v71l114 54h36v-125q0 -60 50 -60h155q50 0 50 57v111q0 57 -50 57h-219l154 274h-246v36l50 105h436l-166 -280q90 -2 139 -48q52 -49 52 -146v-112q0 -194 -200 -194h-155q-200 0 -200 200zM407 28l709 1522h10l141 -68l-709 -1522h-10zM874 195v36l44 93 l331 426l105 50h36v-464h75v-36l-50 -105h-25v-181l-114 -54h-36v235h-366zM1075 336h165v204z" />
<glyph unicode="&#xbf;" horiz-adv-x="1310" d="M150 350v110q0 247 339 459q87 54 90 137l193 93h10q-1 -254 -175 -361q-257 -158 -257 -329v-109q0 -170 150 -170h310q150 0 150 170v110l190 90h10v-200q0 -350 -350 -350h-310q-350 0 -350 350zM545 1407.5q0 50.5 35 86.5t85 36t85 -36t35 -86.5t-35 -86.5t-85 -36 t-85 36t-35 86.5z" />
<glyph unicode="&#xc0;" d="M200 -40v1200q0 350 350 350h310q350 0 350 -350v-1110l-190 -90h-10v704h-610v-614l-190 -90h-10zM400 846h610v314q0 170 -150 170h-310q-150 0 -150 -170v-314zM420 1882l176 84h10l162 -345l-117 -55h-10z" />
<glyph unicode="&#xc1;" d="M200 -40v1200q0 350 350 350h310q350 0 350 -350v-1110l-190 -90h-10v704h-610v-614l-190 -90h-10zM400 846h610v314q0 170 -150 170h-310q-150 0 -150 -170v-314zM655 1621l162 345h10l176 -84l-221 -316h-10z" />
<glyph unicode="&#xc2;" d="M200 -40v1200q0 350 350 350h310q350 0 350 -350v-1110l-190 -90h-10v704h-610v-614l-190 -90h-10zM400 846h610v314q0 170 -150 170h-310q-150 0 -150 -170v-314zM434 1621l153 261l176 84h10l213 -345l-116 -55h-10l-150 208l-148 -208h-10z" />
<glyph unicode="&#xc3;" d="M200 -40v1200q0 350 350 350h310q350 0 350 -350v-1110l-190 -90h-10v704h-610v-614l-190 -90h-10zM400 846h610v314q0 170 -150 170h-310q-150 0 -150 -170v-314zM471 1638q0 286 141 286q64 0 137 -70q51 -49 75 -49q34 0 34 72l110 47h6q0 -286 -141 -286 q-64 0 -137 70q-51 49 -75 49q-34 0 -34 -72l-110 -47h-6z" />
<glyph unicode="&#xc4;" d="M200 -40v1200q0 350 350 350h310q350 0 350 -350v-1110l-190 -90h-10v704h-610v-614l-190 -90h-10zM400 846h610v314q0 170 -150 170h-310q-150 0 -150 -170v-314zM442 1802.5q0 50.5 35 86.5t85 36t85 -36t35 -86.5t-35 -86.5t-85 -36t-85 36t-35 86.5zM742 1802.5 q0 50.5 35 86.5t85 36t85 -36t35 -86.5t-35 -86.5t-85 -36t-85 36t-35 86.5z" />
<glyph unicode="&#xc5;" d="M200 -40v1200q0 350 350 350h310q350 0 350 -350v-1110l-190 -90h-10v704h-610v-614l-190 -90h-10zM400 846h610v314q0 170 -150 170h-310q-150 0 -150 -170v-314zM508 1777q0 83 62 140q53 49 135 49q80 0 135 -49q62 -55 62 -140t-62 -140q-55 -49 -135 -49t-135 49 q-62 55 -62 140zM631 1777q0 -46 21 -65q22 -20 52 -20q31 0 53 22q20 19 20 63q0 45 -22 66q-20 19 -50 19q-34 0 -54 -21t-20 -64z" />
<glyph unicode="&#xc6;" horiz-adv-x="1967" d="M200 -40v1200q0 350 350 350h310q127 0 182 -56l74 56h634v-10l-81 -172h-459v-482h540v-10l-81 -172h-459v-482h707v-10l-81 -172h-826v664h-610v-614l-190 -90h-10zM400 846h610v314q0 170 -150 170h-310q-150 0 -150 -170v-314z" />
<glyph unicode="&#xc7;" d="M200 350v810q0 350 350 350h310q350 0 350 -350v-110l-190 -90h-10v200q0 170 -150 170h-310q-150 0 -150 -170v-810q0 -170 150 -170h310q150 0 150 170v110l190 90h10v-200q0 -350 -350 -350h-90q79 -85 79 -206q0 -137 -109 -244h-10l-190 90q134 87 134 208 q0 69 -53 152h-71q-350 0 -350 350z" />
<glyph unicode="&#xc8;" horiz-adv-x="1157" d="M200 0v1460l106 50h634v-10l-81 -172h-459v-482h540v-10l-81 -172h-459v-482h707v-10l-81 -172h-826zM330 1882l176 84h10l162 -345l-117 -55h-10z" />
<glyph unicode="&#xc9;" horiz-adv-x="1157" d="M200 0v1460l106 50h634v-10l-81 -172h-459v-482h540v-10l-81 -172h-459v-482h707v-10l-81 -172h-826zM522 1621l162 345h10l176 -84l-221 -316h-10z" />
<glyph unicode="&#xca;" horiz-adv-x="1157" d="M200 0v1460l106 50h634v-10l-81 -172h-459v-482h540v-10l-81 -172h-459v-482h707v-10l-81 -172h-826zM313 1621l153 261l176 84h10l213 -345l-116 -55h-10l-150 208l-148 -208h-10z" />
<glyph unicode="&#xcb;" horiz-adv-x="1157" d="M200 0v1460l106 50h634v-10l-81 -172h-459v-482h540v-10l-81 -172h-459v-482h707v-10l-81 -172h-826zM317 1802.5q0 50.5 35 86.5t85 36t85 -36t35 -86.5t-35 -86.5t-85 -36t-85 36t-35 86.5zM617 1802.5q0 50.5 35 86.5t85 36t85 -36t35 -86.5t-35 -86.5t-85 -36t-85 36 t-35 86.5z" />
<glyph unicode="&#xcc;" horiz-adv-x="600" d="M66 1882l176 84h10l162 -345l-117 -55h-10zM200 -40v1500l190 90h10v-1500l-190 -90h-10z" />
<glyph unicode="&#xcd;" horiz-adv-x="600" d="M186 1621l162 345h10l176 -84l-221 -316h-10zM200 -40v1500l190 90h10v-1500l-190 -90h-10z" />
<glyph unicode="&#xce;" horiz-adv-x="600" d="M24 1621l152 261l176 84h10l214 -345l-117 -55h-10l-150 208l-148 -208h-10zM200 -40v1500l190 90h10v-1500l-190 -90h-10z" />
<glyph unicode="&#xcf;" horiz-adv-x="600" d="M30 1802.5q0 50.5 35 86.5t85 36t85 -36t35 -86.5t-35 -86.5t-85 -36t-85 36t-35 86.5zM200 -40v1500l190 90h10v-1500l-190 -90h-10zM330 1802.5q0 50.5 35 86.5t85 36t85 -36t35 -86.5t-35 -86.5t-85 -36t-85 36t-35 86.5z" />
<glyph unicode="&#xd0;" horiz-adv-x="1390" d="M50 664v10l81 172h69v614l106 50h534q350 0 350 -350v-810q0 -350 -350 -350h-640v664h-150zM400 180h440q150 0 150 170v810q0 170 -150 170h-440v-484h415v-10l-81 -172h-334v-484z" />
<glyph unicode="&#xd1;" d="M200 -40v1200q0 350 350 350h310q350 0 350 -350v-1110l-190 -90h-10v1200q0 170 -150 170h-310q-150 0 -150 -170v-1110l-190 -90h-10zM471 1638q0 286 141 286q64 0 137 -70q51 -49 75 -49q34 0 34 72l110 47h6q0 -286 -141 -286q-64 0 -137 70q-51 49 -75 49 q-34 0 -34 -72l-110 -47h-6z" />
<glyph unicode="&#xd2;" d="M200 350v810q0 350 350 350h310q350 0 350 -350v-810q0 -350 -350 -350h-310q-350 0 -350 350zM400 350q0 -170 150 -170h310q150 0 150 170v810q0 170 -150 170h-310q-150 0 -150 -170v-810zM420 1882l176 84h10l162 -345l-117 -55h-10z" />
<glyph unicode="&#xd3;" d="M200 350v810q0 350 350 350h310q350 0 350 -350v-810q0 -350 -350 -350h-310q-350 0 -350 350zM400 350q0 -170 150 -170h310q150 0 150 170v810q0 170 -150 170h-310q-150 0 -150 -170v-810zM655 1621l162 345h10l176 -84l-221 -316h-10z" />
<glyph unicode="&#xd4;" d="M200 350v810q0 350 350 350h310q350 0 350 -350v-810q0 -350 -350 -350h-310q-350 0 -350 350zM400 350q0 -170 150 -170h310q150 0 150 170v810q0 170 -150 170h-310q-150 0 -150 -170v-810zM434 1621l153 261l176 84h10l213 -345l-116 -55h-10l-150 208l-148 -208h-10z " />
<glyph unicode="&#xd5;" d="M200 350v810q0 350 350 350h310q350 0 350 -350v-810q0 -350 -350 -350h-310q-350 0 -350 350zM400 350q0 -170 150 -170h310q150 0 150 170v810q0 170 -150 170h-310q-150 0 -150 -170v-810zM471 1638q0 286 141 286q64 0 137 -70q51 -49 75 -49q34 0 34 72l110 47h6 q0 -286 -141 -286q-64 0 -137 70q-51 49 -75 49q-34 0 -34 -72l-110 -47h-6z" />
<glyph unicode="&#xd6;" d="M200 350v810q0 350 350 350h310q350 0 350 -350v-810q0 -350 -350 -350h-310q-350 0 -350 350zM400 350q0 -170 150 -170h310q150 0 150 170v810q0 170 -150 170h-310q-150 0 -150 -170v-810zM442 1802.5q0 50.5 35 86.5t85 36t85 -36t35 -86.5t-35 -86.5t-85 -36t-85 36 t-35 86.5zM742 1802.5q0 50.5 35 86.5t85 36t85 -36t35 -86.5t-35 -86.5t-85 -36t-85 36t-35 86.5z" />
<glyph unicode="&#xd7;" horiz-adv-x="1075" d="M150 496l259 259l-259 259l7 7l179 64l201 -201l202 201l179 -64l7 -7l-259 -259l259 -259l-7 -7l-179 -64l-202 201l-201 -201l-179 64z" />
<glyph unicode="&#xd8;" d="M200 350v810q0 350 350 350h310q67 0 121 -13l25 53h10l104 -51l-25 -53q115 -86 115 -286v-810q0 -350 -350 -350h-310q-67 0 -121 13l-25 -53h-10l-104 50l25 54q-115 85 -115 286zM400 350q0 -46 11 -80l491 1056q-19 4 -42 4h-310q-150 0 -150 -170v-810zM508 184 q19 -4 42 -4h310q150 0 150 170v810q0 46 -11 79z" />
<glyph unicode="&#xd9;" d="M200 350v1110l190 90h10v-1200q0 -170 150 -170h310q150 0 150 170v1110l190 90h10v-1200q0 -350 -350 -350h-310q-350 0 -350 350zM420 1882l176 84h10l162 -345l-117 -55h-10z" />
<glyph unicode="&#xda;" d="M200 350v1110l190 90h10v-1200q0 -170 150 -170h310q150 0 150 170v1110l190 90h10v-1200q0 -350 -350 -350h-310q-350 0 -350 350zM655 1621l162 345h10l176 -84l-221 -316h-10z" />
<glyph unicode="&#xdb;" d="M200 350v1110l190 90h10v-1200q0 -170 150 -170h310q150 0 150 170v1110l190 90h10v-1200q0 -350 -350 -350h-310q-350 0 -350 350zM434 1621l153 261l176 84h10l213 -345l-116 -55h-10l-150 208l-148 -208h-10z" />
<glyph unicode="&#xdc;" d="M200 350v1110l190 90h10v-1200q0 -170 150 -170h310q150 0 150 170v1110l190 90h10v-1200q0 -350 -350 -350h-310q-350 0 -350 350zM442 1802.5q0 50.5 35 86.5t85 36t85 -36t35 -86.5t-35 -86.5t-85 -36t-85 36t-35 86.5zM742 1802.5q0 50.5 35 86.5t85 36t85 -36 t35 -86.5t-35 -86.5t-85 -36t-85 36t-35 86.5z" />
<glyph unicode="&#xdd;" horiz-adv-x="1310" d="M150 832v628l190 90h10v-718q0 -170 150 -170h310q150 0 150 170v628l190 90h10v-718q0 -350 -350 -350h-55v-432l-190 -90h-10v522h-55q-350 0 -350 350zM655 1621l162 345h10l176 -84l-221 -316h-10z" />
<glyph unicode="&#xde;" horiz-adv-x="1340" d="M200 -40v1500l190 90h10v-280h440q350 0 350 -350v-300q0 -350 -350 -350h-440v-220l-190 -90h-10zM400 450h440q150 0 150 170v300q0 170 -150 170h-440v-640z" />
<glyph unicode="&#xdf;" horiz-adv-x="1270" d="M200 -40v1250q0 300 300 300h230q300 0 300 -300v-164q0 -110 -58 -175q148 -84 148 -295v-226q0 -350 -350 -350h-206v10l81 172h125q150 0 150 168v226q0 168 -150 168h-121v10l81 172q100 0 100 120v164q0 120 -100 120h-230q-100 0 -100 -120v-1160l-190 -90h-10z " />
<glyph unicode="&#xe0;" horiz-adv-x="1060" d="M100 300v137q0 300 300 300h210q52 0 100 -30v93q0 120 -100 120h-358v10l80 170h278q300 0 300 -300v-750l-190 -90h-10v70q-38 -30 -100 -30h-210q-300 0 -300 300zM255 1482l176 84h10l162 -345l-117 -55h-10zM300 300q0 -120 100 -120h210q100 0 100 120v137 q0 120 -100 120h-210q-100 0 -100 -120v-137z" />
<glyph unicode="&#xe1;" horiz-adv-x="1060" d="M100 300v137q0 300 300 300h210q52 0 100 -30v93q0 120 -100 120h-358v10l80 170h278q300 0 300 -300v-750l-190 -90h-10v70q-38 -30 -100 -30h-210q-300 0 -300 300zM300 300q0 -120 100 -120h210q100 0 100 120v137q0 120 -100 120h-210q-100 0 -100 -120v-137z M501 1221l162 345h10l176 -84l-221 -316h-10z" />
<glyph unicode="&#xe2;" horiz-adv-x="1060" d="M100 300v137q0 300 300 300h210q52 0 100 -30v93q0 120 -100 120h-358v10l80 170h278q300 0 300 -300v-750l-190 -90h-10v70q-38 -30 -100 -30h-210q-300 0 -300 300zM274 1221l153 261l176 84h10l213 -345l-116 -55h-10l-150 208l-148 -208h-10zM300 300 q0 -120 100 -120h210q100 0 100 120v137q0 120 -100 120h-210q-100 0 -100 -120v-137z" />
<glyph unicode="&#xe3;" horiz-adv-x="1060" d="M100 300v137q0 300 300 300h210q52 0 100 -30v93q0 120 -100 120h-358v10l80 170h278q300 0 300 -300v-750l-190 -90h-10v70q-38 -30 -100 -30h-210q-300 0 -300 300zM300 300q0 -120 100 -120h210q100 0 100 120v137q0 120 -100 120h-210q-100 0 -100 -120v-137z M322 1232q0 286 141 286q64 0 137 -70q51 -49 75 -49q34 0 34 72l110 47h6q0 -286 -141 -286q-64 0 -137 70q-51 49 -75 49q-34 0 -34 -72l-110 -47h-6z" />
<glyph unicode="&#xe4;" horiz-adv-x="1060" d="M100 300v137q0 300 300 300h210q52 0 100 -30v93q0 120 -100 120h-358v10l80 170h278q300 0 300 -300v-750l-190 -90h-10v70q-38 -30 -100 -30h-210q-300 0 -300 300zM277 1407.5q0 50.5 35 86.5t85 36t85 -36t35 -86.5t-35 -86.5t-85 -36t-85 36t-35 86.5zM300 300 q0 -120 100 -120h210q100 0 100 120v137q0 120 -100 120h-210q-100 0 -100 -120v-137zM577 1407.5q0 50.5 35 86.5t85 36t85 -36t35 -86.5t-35 -86.5t-85 -36t-85 36t-35 86.5z" />
<glyph unicode="&#xe5;" horiz-adv-x="1060" d="M100 300v137q0 300 300 300h210q52 0 100 -30v93q0 120 -100 120h-358v10l80 170h278q300 0 300 -300v-750l-190 -90h-10v70q-38 -30 -100 -30h-210q-300 0 -300 300zM300 300q0 -120 100 -120h210q100 0 100 120v137q0 120 -100 120h-210q-100 0 -100 -120v-137z M353 1377q0 83 62 140q53 49 135 49q80 0 135 -49q62 -55 62 -140t-62 -140q-55 -49 -135 -49t-135 49q-62 55 -62 140zM476 1377q0 -46 21 -65q22 -20 52 -20q31 0 53 22q20 19 20 63q0 45 -22 66q-20 19 -50 19q-34 0 -54 -21t-20 -64z" />
<glyph unicode="&#xe6;" horiz-adv-x="1690" d="M100 300v137q0 300 300 300h210q52 0 100 -30v93q0 120 -100 120h-358v10l80 170h278q132 0 200 -74q68 74 200 74h230q300 0 300 -300v-53l-627 -485q14 -82 97 -82h230q100 0 100 120v53l190 90h10v-143q0 -300 -300 -300h-230q-62 0 -141 34l-149 -74h-10v70 q-38 -30 -100 -30h-210q-300 0 -300 300zM300 300q0 -120 100 -120h210q100 0 100 120v137q0 120 -100 120h-210q-100 0 -100 -120v-137zM910 471l429 346q-6 103 -99 103h-230q-100 0 -100 -120v-329z" />
<glyph unicode="&#xe7;" horiz-adv-x="1130" d="M150 300v500q0 300 300 300h230q300 0 300 -300v-53l-190 -90h-10v143q0 120 -100 120h-230q-100 0 -100 -120v-500q0 -120 100 -120h230q100 0 100 120v53l190 90h10v-143q0 -300 -300 -300h-52q80 -85 80 -206q0 -137 -109 -244h-10l-190 90q134 87 134 208 q0 66 -54 152h-29q-300 0 -300 300z" />
<glyph unicode="&#xe8;" horiz-adv-x="1130" d="M150 300v500q0 300 300 300h230q300 0 300 -300v-53l-627 -485q14 -82 97 -82h230q100 0 100 120v53l190 90h10v-143q0 -300 -300 -300h-230q-300 0 -300 300zM275 1482l176 84h10l162 -345l-117 -55h-10zM350 471l429 346q-6 103 -99 103h-230q-100 0 -100 -120v-329z " />
<glyph unicode="&#xe9;" horiz-adv-x="1130" d="M150 300v500q0 300 300 300h230q300 0 300 -300v-53l-627 -485q14 -82 97 -82h230q100 0 100 120v53l190 90h10v-143q0 -300 -300 -300h-230q-300 0 -300 300zM350 471l429 346q-6 103 -99 103h-230q-100 0 -100 -120v-329zM521 1221l162 345h10l176 -84l-221 -316h-10z " />
<glyph unicode="&#xea;" horiz-adv-x="1130" d="M150 300v500q0 300 300 300h230q300 0 300 -300v-53l-627 -485q14 -82 97 -82h230q100 0 100 120v53l190 90h10v-143q0 -300 -300 -300h-230q-300 0 -300 300zM294 1221l153 261l176 84h10l213 -345l-116 -55h-10l-150 208l-148 -208h-10zM350 471l429 346 q-6 103 -99 103h-230q-100 0 -100 -120v-329z" />
<glyph unicode="&#xeb;" horiz-adv-x="1130" d="M150 300v500q0 300 300 300h230q300 0 300 -300v-53l-627 -485q14 -82 97 -82h230q100 0 100 120v53l190 90h10v-143q0 -300 -300 -300h-230q-300 0 -300 300zM297 1407.5q0 50.5 35 86.5t85 36t85 -36t35 -86.5t-35 -86.5t-85 -36t-85 36t-35 86.5zM350 471l429 346 q-6 103 -99 103h-230q-100 0 -100 -120v-329zM597 1407.5q0 50.5 35 86.5t85 36t85 -36t35 -86.5t-35 -86.5t-85 -36t-85 36t-35 86.5z" />
<glyph unicode="&#xec;" horiz-adv-x="600" d="M66 1482l176 84h10l162 -345l-117 -55h-10zM200 -40v1090l190 90h10v-1090l-190 -90h-10z" />
<glyph unicode="&#xed;" horiz-adv-x="600" d="M186 1221l162 345h10l176 -84l-221 -316h-10zM200 -40v1090l190 90h10v-1090l-190 -90h-10z" />
<glyph unicode="&#xee;" horiz-adv-x="600" d="M24 1221l153 261l176 84h10l213 -345l-116 -55h-10l-150 208l-148 -208h-10zM200 -40v1090l190 90h10v-1090l-190 -90h-10z" />
<glyph unicode="&#xef;" horiz-adv-x="600" d="M30 1407.5q0 50.5 35 86.5t85 36t85 -36t35 -86.5t-35 -86.5t-85 -36t-85 36t-35 86.5zM200 -40v1090l190 90h10v-1090l-190 -90h-10zM330 1407.5q0 50.5 35 86.5t85 36t85 -36t35 -86.5t-35 -86.5t-85 -36t-85 36t-35 86.5z" />
<glyph unicode="&#xf0;" horiz-adv-x="1180" d="M150 300v298q0 300 300 300h230q65 0 100 -30v265l-132 -99h-10l-157 68l256 191q-37 37 -107 37h-164v180h164q182 0 269 -95l55 41h10l157 -68l-152 -114q11 -68 11 -114v-860q0 -300 -300 -300h-230q-300 0 -300 300zM350 300q0 -120 100 -120h230q100 0 100 120v298 q0 120 -100 120h-230q-100 0 -100 -120v-298z" />
<glyph unicode="&#xf1;" horiz-adv-x="1130" d="M150 -40v840q0 300 300 300h230q300 0 300 -300v-750l-190 -90h-10v840q0 120 -100 120h-230q-100 0 -100 -120v-750l-190 -90h-10zM342 1232q0 286 141 286q64 0 137 -70q51 -49 75 -49q34 0 34 72l110 47h6q0 -286 -141 -286q-64 0 -137 70q-51 49 -75 49 q-34 0 -34 -72l-110 -47h-6z" />
<glyph unicode="&#xf2;" horiz-adv-x="1130" d="M150 300v500q0 300 300 300h230q300 0 300 -300v-500q0 -300 -300 -300h-230q-300 0 -300 300zM275 1482l176 84h10l162 -345l-117 -55h-10zM350 300q0 -120 100 -120h230q100 0 100 120v500q0 120 -100 120h-230q-100 0 -100 -120v-500z" />
<glyph unicode="&#xf3;" horiz-adv-x="1130" d="M150 300v500q0 300 300 300h230q300 0 300 -300v-500q0 -300 -300 -300h-230q-300 0 -300 300zM350 300q0 -120 100 -120h230q100 0 100 120v500q0 120 -100 120h-230q-100 0 -100 -120v-500zM521 1221l162 345h10l176 -84l-221 -316h-10z" />
<glyph unicode="&#xf4;" horiz-adv-x="1130" d="M150 300v500q0 300 300 300h230q300 0 300 -300v-500q0 -300 -300 -300h-230q-300 0 -300 300zM294 1221l153 261l176 84h10l213 -345l-116 -55h-10l-150 208l-148 -208h-10zM350 300q0 -120 100 -120h230q100 0 100 120v500q0 120 -100 120h-230q-100 0 -100 -120v-500z " />
<glyph unicode="&#xf5;" horiz-adv-x="1130" d="M150 300v500q0 300 300 300h230q300 0 300 -300v-500q0 -300 -300 -300h-230q-300 0 -300 300zM342 1232q0 286 141 286q64 0 137 -70q51 -49 75 -49q34 0 34 72l110 47h6q0 -286 -141 -286q-64 0 -137 70q-51 49 -75 49q-34 0 -34 -72l-110 -47h-6zM350 300 q0 -120 100 -120h230q100 0 100 120v500q0 120 -100 120h-230q-100 0 -100 -120v-500z" />
<glyph unicode="&#xf6;" horiz-adv-x="1130" d="M150 300v500q0 300 300 300h230q300 0 300 -300v-500q0 -300 -300 -300h-230q-300 0 -300 300zM297 1407.5q0 50.5 35 86.5t85 36t85 -36t35 -86.5t-35 -86.5t-85 -36t-85 36t-35 86.5zM350 300q0 -120 100 -120h230q100 0 100 120v500q0 120 -100 120h-230 q-100 0 -100 -120v-500zM597 1407.5q0 50.5 35 86.5t85 36t85 -36t35 -86.5t-35 -86.5t-85 -36t-85 36t-35 86.5z" />
<glyph unicode="&#xf7;" horiz-adv-x="1214" d="M150 664v10l81 172h833v-10l-81 -172h-833zM488 427.5q0 50.5 35 86.5t85 36t85 -36t35 -86.5t-35 -86.5t-85 -36t-85 36t-35 86.5zM488 1087.5q0 50.5 35 86.5t85 36t85 -36t35 -86.5t-35 -86.5t-85 -36t-85 36t-35 86.5z" />
<glyph unicode="&#xf8;" horiz-adv-x="1130" d="M150 300v500q0 300 300 300h230q37 0 69 -5l21 45h10l105 -51l-16 -35q111 -71 111 -254v-500q0 -300 -300 -300h-230q-37 0 -70 5l-21 -45h-10l-104 50l17 36q-112 71 -112 254zM350 300q0 -29 6 -51l312 671h-218q-100 0 -100 -120v-500zM461 180h219q100 0 100 120 v500q0 29 -6 51z" />
<glyph unicode="&#xf9;" horiz-adv-x="1130" d="M150 300v750l190 90h10v-840q0 -120 100 -120h230q100 0 100 120v750l190 90h10v-840q0 -300 -300 -300h-230q-300 0 -300 300zM275 1482l176 84h10l162 -345l-117 -55h-10z" />
<glyph unicode="&#xfa;" horiz-adv-x="1130" d="M150 300v750l190 90h10v-840q0 -120 100 -120h230q100 0 100 120v750l190 90h10v-840q0 -300 -300 -300h-230q-300 0 -300 300zM521 1221l162 345h10l176 -84l-221 -316h-10z" />
<glyph unicode="&#xfb;" horiz-adv-x="1130" d="M150 300v750l190 90h10v-840q0 -120 100 -120h230q100 0 100 120v750l190 90h10v-840q0 -300 -300 -300h-230q-300 0 -300 300zM294 1221l153 261l176 84h10l213 -345l-116 -55h-10l-150 208l-148 -208h-10z" />
<glyph unicode="&#xfc;" horiz-adv-x="1130" d="M150 300v750l190 90h10v-840q0 -120 100 -120h230q100 0 100 120v750l190 90h10v-840q0 -300 -300 -300h-230q-300 0 -300 300zM297 1407.5q0 50.5 35 86.5t85 36t85 -36t35 -86.5t-35 -86.5t-85 -36t-85 36t-35 86.5zM597 1407.5q0 50.5 35 86.5t85 36t85 -36t35 -86.5 t-35 -86.5t-85 -36t-85 36t-35 86.5z" />
<glyph unicode="&#xfd;" horiz-adv-x="1180" d="M150 300v750l190 90h10v-840q0 -120 100 -120h230q100 0 100 120v750l190 90h10v-1250q0 -300 -300 -300h-426v10l80 170h346q100 0 100 120v140q-39 -30 -100 -30h-230q-300 0 -300 300zM521 1221l162 345h10l176 -84l-221 -316h-10z" />
<glyph unicode="&#xfe;" horiz-adv-x="1180" d="M200 -450v1910l190 90h10v-481q44 31 100 31h230q300 0 300 -300v-500q0 -300 -300 -300h-230q-68 0 -100 31v-391l-190 -90h-10zM400 300q0 -120 100 -120h230q100 0 100 120v500q0 120 -100 120h-230q-100 0 -100 -120v-500z" />
<glyph unicode="&#xff;" horiz-adv-x="1180" d="M150 300v750l190 90h10v-840q0 -120 100 -120h230q100 0 100 120v750l190 90h10v-1250q0 -300 -300 -300h-426v10l80 170h346q100 0 100 120v140q-39 -30 -100 -30h-230q-300 0 -300 300zM297 1407.5q0 50.5 35 86.5t85 36t85 -36t35 -86.5t-35 -86.5t-85 -36t-85 36 t-35 86.5zM597 1407.5q0 50.5 35 86.5t85 36t85 -36t35 -86.5t-35 -86.5t-85 -36t-85 36t-35 86.5z" />
<glyph unicode="&#x152;" horiz-adv-x="1967" d="M200 350v810q0 350 350 350h310q130 0 184 -54l72 54h634v-10l-81 -172h-459v-482h540v-10l-81 -172h-459v-482h707v-10l-81 -172h-826v40q-62 -40 -150 -40h-310q-350 0 -350 350zM400 350q0 -170 150 -170h310q150 0 150 170v810q0 170 -150 170h-310q-150 0 -150 -170 v-810z" />
<glyph unicode="&#x153;" horiz-adv-x="1760" d="M150 300v500q0 300 300 300h230q139 0 200 -74q62 74 200 74h230q300 0 300 -300v-53l-627 -485q14 -82 97 -82h230q100 0 100 120v53l190 90h10v-143q0 -300 -300 -300h-230q-150 0 -200 74q-48 -74 -200 -74h-230q-300 0 -300 300zM350 300q0 -120 100 -120h230 q100 0 100 120v500q0 120 -100 120h-230q-100 0 -100 -120v-500zM980 471l429 346q-6 103 -99 103h-230q-100 0 -100 -120v-329z" />
<glyph unicode="&#x178;" horiz-adv-x="1310" d="M150 832v628l190 90h10v-718q0 -170 150 -170h310q150 0 150 170v628l190 90h10v-718q0 -350 -350 -350h-55v-432l-190 -90h-10v522h-55q-350 0 -350 350zM388 1802.5q0 50.5 35 86.5t85 36t85 -36t35 -86.5t-35 -86.5t-85 -36t-85 36t-35 86.5zM688 1802.5 q0 50.5 35 86.5t85 36t85 -36t35 -86.5t-35 -86.5t-85 -36t-85 36t-35 86.5z" />
<glyph unicode="&#x2c6;" horiz-adv-x="1321" d="M150 1088l378 380l173 82h10l460 -462l-173 -82h-10l-329 322l-326 -322h-10z" />
<glyph unicode="&#x2dc;" horiz-adv-x="800" d="M-419 122q0 361 237 361q134 0 223 -101q73 -83 128 -83q72 0 72 103l168 81h10q0 -361 -237 -361q-134 0 -223 101q-73 83 -128 83q-72 0 -72 -103l-168 -81h-10z" />
<glyph unicode="&#x2013;" horiz-adv-x="1214" d="M150 664v10l81 172h833v-10l-81 -172h-833z" />
<glyph unicode="&#x2014;" horiz-adv-x="1214" d="M25 664v10l81 172h1083v-10l-81 -172h-1083z" />
<glyph unicode="&#x2018;" horiz-adv-x="609" d="M150 1230q0 191 245 320l43 -50q-113 -115 -113 -216q0 -121 134 -208l-190 -90h-10q-109 107 -109 244z" />
<glyph unicode="&#x2019;" horiz-adv-x="609" d="M150 1460l190 90h10q109 -107 109 -244q0 -191 -245 -320l-43 50q113 115 113 216q0 121 -134 208z" />
<glyph unicode="&#x201a;" horiz-adv-x="609" d="M150 188l190 90h10q109 -107 109 -244q0 -191 -245 -320l-43 50q113 115 113 216q0 121 -134 208z" />
<glyph unicode="&#x201c;" horiz-adv-x="924" d="M150 1230q0 191 245 320l43 -50q-113 -115 -113 -216q0 -121 134 -208l-190 -90h-10q-109 107 -109 244zM465 1230q0 191 245 320l43 -50q-113 -115 -113 -216q0 -121 134 -208l-190 -90h-10q-109 107 -109 244z" />
<glyph unicode="&#x201d;" horiz-adv-x="924" d="M150 1460l190 90h10q109 -107 109 -244q0 -191 -245 -320l-43 50q113 115 113 216q0 121 -134 208zM465 1460l190 90h10q109 -107 109 -244q0 -191 -245 -320l-43 50q113 115 113 216q0 121 -134 208z" />
<glyph unicode="&#x201e;" horiz-adv-x="924" d="M150 188l190 90h10q109 -107 109 -244q0 -191 -245 -320l-43 50q113 115 113 216q0 121 -134 208zM465 188l190 90h10q109 -107 109 -244q0 -191 -245 -320l-43 50q113 115 113 216q0 121 -134 208z" />
<glyph unicode="&#x2022;" horiz-adv-x="1130" d="M150 674v160q0 300 300 300h230q300 0 300 -300v-160q0 -300 -300 -300h-230q-300 0 -300 300z" />
<glyph unicode="&#x2026;" horiz-adv-x="1272" d="M180 102.5q0 50.5 35 86.5t85 36t85 -36t35 -86.5t-35 -86.5t-85 -36t-85 36t-35 86.5zM516 102.5q0 50.5 35 86.5t85 36t85 -36t35 -86.5t-35 -86.5t-85 -36t-85 36t-35 86.5zM852 102.5q0 50.5 35 86.5t85 36t85 -36t35 -86.5t-35 -86.5t-85 -36t-85 36t-35 86.5z" />
<glyph unicode="&#x2039;" horiz-adv-x="823" d="M150 792l289 492h10l174 -82l-242 -407l242 -409l-174 -82h-10z" />
<glyph unicode="&#x203a;" horiz-adv-x="823" d="M200 386l242 409l-242 407l174 82h10l289 -492l-289 -488h-10z" />
<glyph unicode="&#x20ac;" horiz-adv-x="1584" d="M150 507v10l81 172h143v139h-224v10l81 172h143v150q0 350 350 350h310q350 0 350 -350v-110l-190 -90h-10v200q0 170 -150 170h-310q-150 0 -150 -170v-150h490v-10l-81 -172h-409v-139h490v-10l-81 -172h-409v-157q0 -170 150 -170h310q150 0 150 170v110l190 90h10 v-200q0 -350 -350 -350h-310q-350 0 -350 350v157h-224z" />
<glyph unicode="&#x2122;" horiz-adv-x="1916" d="M150 1369v36l50 105h528v-36l-50 -105h-164v-630l-114 -54h-36v684h-214zM756 685v625q0 200 200 200h155q82 0 126 -37q46 37 124 37h155q200 0 200 -200v-571l-114 -54h-36v625q0 60 -50 60h-155q-50 0 -50 -60v-571l-114 -54h-36v625q0 60 -50 60h-155q-50 0 -50 -60 v-571l-114 -54h-36z" />
<glyph unicode="&#xe000;" horiz-adv-x="1140" d="M0 1140h1140v-1140h-1140v1140z" />
<glyph unicode="&#xfb01;" horiz-adv-x="1450" d="M1030 1407.5q0 50.5 35 86.5t85 36t85 -36t35 -86.5t-35 -86.5t-85 -36t-85 36t-35 86.5zM1050 -40v1090l190 90h10v-1090l-190 -90h-10zM50 818v10l81 172h69v210q0 300 300 300h250v-10l-80 -170h-170q-100 0 -100 -120v-210h331v-10l-81 -172h-250v-768l-190 -90h-10 v858h-150z" />
<glyph unicode="&#xfb02;" horiz-adv-x="1450" d="M1050 -40v1500l190 90h10v-1500l-190 -90h-10zM50 818v10l81 172h69v210q0 300 300 300h250v-10l-80 -170h-170q-100 0 -100 -120v-210h331v-10l-81 -172h-250v-768l-190 -90h-10v858h-150z" />
<glyph unicode="&#xfb03;" horiz-adv-x="2300" d="M1880 1407.5q0 50.5 35 86.5t85 36t85 -36t35 -86.5t-35 -86.5t-85 -36t-85 36t-35 86.5zM1900 -40v1090l190 90h10v-1090l-190 -90h-10zM900 818v10l81 172h69v210q0 300 300 300h250v-10l-80 -170h-170q-100 0 -100 -120v-210h331v-10l-81 -172h-250v-768l-190 -90h-10 v858h-150zM50 818v10l81 172h69v210q0 300 300 300h250v-10l-80 -170h-170q-100 0 -100 -120v-210h331v-10l-81 -172h-250v-768l-190 -90h-10v858h-150z" />
<glyph unicode="&#xfb04;" horiz-adv-x="2300" d="M1900 -40v1500l190 90h10v-1500l-190 -90h-10zM900 818v10l81 172h69v210q0 300 300 300h250v-10l-80 -170h-170q-100 0 -100 -120v-210h331v-10l-81 -172h-250v-768l-190 -90h-10v858h-150zM50 818v10l81 172h69v210q0 300 300 300h250v-10l-80 -170h-170 q-100 0 -100 -120v-210h331v-10l-81 -172h-250v-768l-190 -90h-10v858h-150z" />
</font>
</defs>
</svg>
